<svg width="56" height="56" viewBox="0 0 56 56" fill="none" xmlns="http://www.w3.org/2000/svg">
<circle cx="28" cy="28" r="27" stroke="#FC5A5A" stroke-width="2"/>
<path fill-rule="evenodd" clip-rule="evenodd" d="M34.8512 22.4513C34.9367 22.3659 35.0046 22.2645 35.0509 22.1528C35.0972 22.0412 35.1211 21.9215 35.1212 21.8007C35.1213 21.6798 35.0975 21.5601 35.0514 21.4484C35.0052 21.3367 34.9374 21.2352 34.852 21.1497C34.7666 21.0642 34.6652 20.9963 34.5536 20.95C34.4419 20.9037 34.3223 20.8798 34.2014 20.8797C34.0805 20.8796 33.9608 20.9034 33.8491 20.9496C33.7374 20.9957 33.6359 21.0635 33.5504 21.1489L28 26.6993L22.4512 21.1489C22.2785 20.9762 22.0443 20.8792 21.8 20.8792C21.5558 20.8792 21.3215 20.9762 21.1488 21.1489C20.9761 21.3216 20.8791 21.5558 20.8791 21.8001C20.8791 22.0443 20.9761 22.2786 21.1488 22.4513L26.6992 28.0001L21.1488 33.5489C21.0633 33.6344 20.9955 33.7359 20.9492 33.8477C20.9029 33.9594 20.8791 34.0791 20.8791 34.2001C20.8791 34.321 20.9029 34.4408 20.9492 34.5525C20.9955 34.6642 21.0633 34.7658 21.1488 34.8513C21.3215 35.024 21.5558 35.121 21.8 35.121C21.921 35.121 22.0407 35.0972 22.1525 35.0509C22.2642 35.0046 22.3657 34.9368 22.4512 34.8513L28 29.3009L33.5504 34.8513C33.7231 35.0238 33.9573 35.1206 34.2014 35.1205C34.4455 35.1203 34.6795 35.0232 34.852 34.8505C35.0245 34.6778 35.1213 34.4436 35.1212 34.1995C35.121 33.9554 35.0239 33.7214 34.8512 33.5489L29.3008 28.0001L34.8512 22.4513Z" fill="#FC5A5A"/>
</svg>
